<svg width="48" height="48" viewBox="0 0 48 48" fill="none" xmlns="http://www.w3.org/2000/svg">
<path d="M0.09 36.04C0.234 35.808 0.464 35.792 0.786 35.996C8.058 40.216 15.974 42.328 24.526 42.328C30.23 42.328 35.862 41.262 41.42 39.138L42.05 38.858C42.326 38.738 42.518 38.658 42.636 38.598C43.088 38.422 43.416 38.506 43.686 38.858C43.926 39.206 43.866 39.53 43.446 39.818C42.934 40.198 42.246 40.638 41.434 41.126C38.946 42.612 36.154 43.758 33.064 44.578C25.8265 46.5332 18.154 46.129 11.162 43.424C7.16959 41.8598 3.49103 39.5904 0.302 36.724C0.102 36.576 0 36.424 0 36.284C0 36.19 0.042 36.104 0.102 36.024L0.09 36.04ZM39.05 36.782C39.11 36.662 39.2 36.562 39.314 36.442C40.038 35.956 40.742 35.622 41.414 35.442C42.4698 35.1739 43.5499 35.0131 44.638 34.962C44.918 34.938 45.198 34.962 45.458 35.022C46.758 35.142 47.558 35.358 47.802 35.682C47.928 35.862 48 36.138 48 36.462V36.762C48 37.782 47.702 38.982 47.152 40.362C46.596 41.742 45.824 42.858 44.84 43.722C44.694 43.842 44.56 43.902 44.446 43.902C44.386 43.902 44.326 43.902 44.266 43.878C44.086 43.79 44.052 43.638 44.138 43.398C45.218 40.878 45.75 39.112 45.75 38.118C45.75 37.818 45.69 37.578 45.576 37.43C45.286 37.098 44.476 36.916 43.128 36.916C42.642 36.916 42.062 36.948 41.388 37.008C40.662 37.098 39.988 37.188 39.388 37.278C39.208 37.278 39.092 37.25 39.028 37.19C38.968 37.13 38.956 37.096 38.988 37.036C38.988 37.002 39 36.976 39.028 36.91V36.79L39.05 36.782Z" fill="#DDE0E4"/>
<path d="M13.2203 23.604C13.2203 21.594 13.7143 19.878 14.7063 18.45C15.6963 17.03 17.0463 15.95 18.7863 15.22C20.3783 14.55 22.2983 14.07 24.6103 13.78C25.3903 13.688 26.6763 13.574 28.4503 13.432V12.692C28.4503 10.832 28.2403 9.57598 27.8503 8.94198C27.2463 8.08198 26.2903 7.64198 24.9703 7.64198H24.6063C23.6463 7.73398 22.8143 8.03398 22.1143 8.56198C21.4143 9.10198 20.9643 9.82198 20.7643 10.754C20.6443 11.354 20.3523 11.684 19.8943 11.774L14.8543 11.144C14.3583 11.024 14.1103 10.784 14.1103 10.364C14.1103 10.272 14.1243 10.184 14.1543 10.064C14.6483 7.48398 15.8643 5.56398 17.7943 4.30398C19.7463 3.07198 21.9943 2.35398 24.5743 2.20398H25.6543C28.9543 2.20398 31.5683 3.07198 33.4303 4.78398C33.7003 5.08398 33.9703 5.38398 34.2403 5.74398C34.4803 6.07398 34.6883 6.37198 34.8063 6.64398C34.9563 6.91198 35.1063 7.30398 35.1963 7.78398C35.3163 8.29198 35.4063 8.62398 35.4663 8.80398C35.5263 9.01198 35.5903 9.40398 35.6183 10.034C35.6383 10.66 35.6583 11.02 35.6583 11.14V21.7C35.6583 22.452 35.7783 23.14 35.9883 23.772C36.1983 24.398 36.4083 24.852 36.6183 25.12L37.6383 26.468C37.8183 26.74 37.9103 26.98 37.9103 27.188C37.9103 27.428 37.7903 27.64 37.5503 27.816C35.1503 29.916 33.8303 31.056 33.6243 31.236C33.2943 31.506 32.8743 31.536 32.3643 31.326C31.9942 31.0165 31.6429 30.6853 31.3123 30.334L30.6923 29.64C30.4731 29.366 30.2617 29.0858 30.0583 28.8L29.4583 27.93C27.8383 29.702 26.2523 30.81 24.6583 31.26C23.6703 31.56 22.4723 31.714 20.9983 31.714C18.7783 31.714 16.9183 31.028 15.4783 29.646C14.0383 28.266 13.3183 26.316 13.3183 23.766L13.2183 23.614L13.2203 23.604ZM20.7263 22.728C20.7263 23.86 21.0063 24.768 21.5763 25.456C22.1463 26.136 22.9263 26.48 23.8863 26.48C23.9763 26.48 24.0983 26.466 24.2763 26.44C24.4563 26.408 24.5443 26.394 24.6083 26.394C25.8363 26.074 26.7683 25.288 27.4563 24.038C27.7863 23.478 28.0263 22.878 28.1763 22.218C28.3563 21.578 28.4163 21.038 28.4463 20.618C28.4763 20.228 28.4763 19.538 28.4763 18.608V17.528C26.7963 17.528 25.5083 17.648 24.6363 17.888C22.0863 18.608 20.7963 20.228 20.7963 22.748L20.7263 22.708V22.728Z" fill="#DDE0E4"/>
</svg>
