<svg width="48" height="48" viewBox="0 0 48 48" fill="none" xmlns="http://www.w3.org/2000/svg">
<g clip-path="url(#clip0_5711_242)">
<path fill-rule="evenodd" clip-rule="evenodd" d="M24.0002 11.6756C17.1935 11.6756 11.6758 17.1934 11.6758 24C11.6758 30.8064 17.1935 36.3242 24.0002 36.3242C30.8066 36.3242 36.3243 30.8064 36.3243 24C36.3243 17.1934 30.8066 11.6756 24.0002 11.6756ZM24.0002 31.9999C19.5818 31.9999 16.0001 28.4182 16.0001 24C16.0001 19.5817 19.5818 15.9999 24.0002 15.9999C28.4183 15.9999 32 19.5817 32 24C32 28.4182 28.4183 31.9999 24.0002 31.9999Z" fill="#DDE0E4"/>
<path d="M36.8112 14.0687C38.4017 14.0687 39.6912 12.7793 39.6912 11.1887C39.6912 9.59812 38.4017 8.30878 36.8112 8.30878C35.2206 8.30878 33.9312 9.59812 33.9312 11.1887C33.9312 12.7793 35.2206 14.0687 36.8112 14.0687Z" fill="#DDE0E4"/>
<path fill-rule="evenodd" clip-rule="evenodd" d="M24 0C17.4819 0 16.6646 0.0276562 14.1048 0.144469C11.5503 0.261 9.80559 0.666656 8.27897 1.26C6.70078 1.87331 5.36231 2.694 4.02816 4.02825C2.69391 5.36241 1.87322 6.70087 1.25991 8.27906C0.666562 9.80559 0.260906 11.5503 0.144375 14.1048C0.0275625 16.6646 0 17.4819 0 24C0 30.5179 0.0275625 31.3352 0.144375 33.895C0.260906 36.4495 0.666562 38.1942 1.25991 39.7207C1.87322 41.2989 2.69391 42.6374 4.02816 43.9717C5.36231 45.3059 6.70078 46.1266 8.27897 46.7399C9.80559 47.3332 11.5503 47.7389 14.1048 47.8554C16.6646 47.9722 17.4819 47.9998 24 47.9998C30.5179 47.9998 31.3352 47.9722 33.895 47.8554C36.4495 47.7389 38.1942 47.3332 39.7207 46.7399C41.2989 46.1266 42.6374 45.3059 43.9717 43.9717C45.3059 42.6374 46.1266 41.2989 46.7399 39.7207C47.3332 38.1942 47.7389 36.4495 47.8554 33.895C47.9722 31.3352 47.9998 30.5179 47.9998 24C47.9998 17.4819 47.9722 16.6646 47.8554 14.1048C47.7389 11.5503 47.3332 9.80559 46.7399 8.27906C46.1266 6.70087 45.3059 5.36241 43.9717 4.02825C42.6374 2.694 41.2989 1.87331 39.7207 1.26C38.1942 0.666656 36.4495 0.261 33.895 0.144469C31.3352 0.0276562 30.5179 0 24 0ZM24 4.32441C30.4082 4.32441 31.1673 4.34878 33.698 4.46428C36.0379 4.57106 37.3087 4.962 38.1544 5.29059C39.2746 5.72597 40.0741 6.24609 40.9139 7.08591C41.7538 7.92572 42.2738 8.72531 42.7092 9.84544C43.0379 10.6912 43.4288 11.9619 43.5356 14.3018C43.651 16.8326 43.6755 17.5917 43.6755 24C43.6755 30.4082 43.651 31.1673 43.5356 33.698C43.4288 36.0379 43.0379 37.3087 42.7092 38.1544C42.2738 39.2746 41.7538 40.0741 40.9139 40.9139C40.0741 41.7538 39.2746 42.2738 38.1544 42.7092C37.3087 43.0379 36.0379 43.4288 33.698 43.5355C31.1677 43.651 30.4087 43.6755 24 43.6755C17.5912 43.6755 16.8323 43.651 14.3018 43.5355C11.9619 43.4288 10.6912 43.0379 9.84544 42.7092C8.72522 42.2738 7.92572 41.7538 7.08581 40.9139C6.246 40.0741 5.72587 39.2746 5.29059 38.1544C4.96191 37.3087 4.57097 36.0379 4.46419 33.698C4.34869 31.1673 4.32431 30.4082 4.32431 24C4.32431 17.5917 4.34869 16.8326 4.46419 14.3018C4.57097 11.9619 4.96191 10.6912 5.29059 9.84544C5.72587 8.72531 6.246 7.92572 7.08581 7.08591C7.92572 6.24609 8.72522 5.72597 9.84544 5.29059C10.6912 4.962 11.9619 4.57106 14.3018 4.46428C16.8326 4.34878 17.5917 4.32441 24 4.32441Z" fill="#DDE0E4"/>
</g>
<defs>
<clipPath id="clip0_5711_242">
<rect width="48" height="48" fill="white"/>
</clipPath>
</defs>
</svg>
